<?xml version="1.0" standalone="no"?>
<!DOCTYPE svg PUBLIC "-//W3C//DTD SVG 20010904//EN"
 "http://www.w3.org/TR/2001/REC-SVG-20010904/DTD/svg10.dtd">
<svg version="1.0" xmlns="http://www.w3.org/2000/svg"
 width="512.000000pt" height="512.000000pt" viewBox="0 0 512.000000 512.000000"
 preserveAspectRatio="xMidYMid meet">
<metadata>
Created by potrace 1.11, written by Peter Selinger 2001-2013
</metadata>
<g transform="translate(0.000000,512.000000) scale(0.100000,-0.100000)"
fill="#000000" stroke="none">
<path d="M90 5029 l0 -91 650 -650 650 -651 0 742 0 741 -650 0 -650 0 0 -91z"/>
<path d="M1773 3828 l-1293 -1293 -195 195 -195 195 0 -1463 0 -1462 650 0
650 0 1 38 c0 20 0 422 0 892 l0 855 1667 1668 1667 1667 -830 0 -830 0 -1292
-1292z"/>
<path d="M90 3934 l0 -849 195 -195 195 -195 424 425 424 425 -619 619 -619
619 0 -849z"/>
<path d="M1927 2167 l-459 -460 854 -854 853 -853 930 0 930 0 -1315 1315
c-723 723 -1319 1314 -1325 1314 -5 -1 -216 -209 -468 -462z"/>
</g>
</svg>
