<svg width="41" height="40" viewBox="0 0 41 40" fill="none" xmlns="http://www.w3.org/2000/svg">
<path d="M15.7812 33.2188C15.0312 32.4062 14.0938 32 12.9688 32C11.9062 32 10.9688 32.4062 10.1562 33.2188C9.40625 33.9688 9.03125 34.9062 9.03125 36.0312C9.03125 37.0938 9.40625 38 10.1562 38.75C10.9688 39.5625 11.9062 39.9688 12.9688 39.9688C14.0938 39.9688 15.0312 39.5625 15.7812 38.75C16.5938 38 17 37.0938 17 36.0312C17 34.9062 16.5938 33.9688 15.7812 33.2188ZM0.96875 0.03125V3.96875H5L12.2188 19.1562L9.40625 24.0312C9.15625 24.7812 9.03125 25.4375 9.03125 26C9.03125 27.125 9.40625 28.0938 10.1562 28.9062C10.9688 29.6562 11.9062 30.0312 12.9688 30.0312H36.9688V26H13.8125C13.5625 26 13.4375 25.875 13.4375 25.625V25.4375L15.2188 21.9688H30.0312C31.5938 21.9688 32.7188 21.3125 33.4062 20L40.625 6.96875C40.875 6.71875 41 6.40625 41 6.03125C41 5.40625 40.8125 4.90625 40.4375 4.53125C40.0625 4.15625 39.5938 3.96875 39.0312 3.96875H9.40625L7.625 0.03125H0.96875ZM35.75 33.2188C35 32.4062 34.0625 32 32.9375 32C31.875 32 30.9375 32.4062 30.125 33.2188C29.375 33.9688 29 34.9062 29 36.0312C29 37.0938 29.375 38 30.125 38.75C30.9375 39.5625 31.875 39.9688 32.9375 39.9688C34.0625 39.9688 35 39.5625 35.75 38.75C36.5625 38 36.9688 37.0938 36.9688 36.0312C36.9688 34.9062 36.5625 33.9688 35.75 33.2188Z" fill="black" fill-opacity="0.7"/>
</svg>
