<svg width="31" height="31" viewBox="0 0 31 31" fill="none" xmlns="http://www.w3.org/2000/svg">
<path d="M9.97266 13.1172C11.4701 14.6146 13.2669 15.3633 15.3633 15.3633C17.4596 15.3633 19.2565 14.6146 20.7539 13.1172C22.2513 11.6198 23 9.82292 23 7.72656C23 5.57031 22.2513 3.74349 20.7539 2.24609C19.2565 0.748698 17.4596 0 15.3633 0C13.2669 0 11.4701 0.748698 9.97266 2.24609C8.47526 3.74349 7.72656 5.57031 7.72656 7.72656C7.72656 9.82292 8.47526 11.6198 9.97266 13.1172ZM21.6523 20.0352C19.3763 19.4961 17.2799 19.2266 15.3633 19.2266C13.4466 19.2266 11.3503 19.4961 9.07422 20.0352C6.79818 20.5143 4.70182 21.3828 2.78516 22.6406C0.928385 23.8385 0 25.2461 0 26.8633V30.7266H30.7266V26.8633C30.7266 25.2461 29.7682 23.8385 27.8516 22.6406C25.9948 21.3828 23.9284 20.5143 21.6523 20.0352Z" fill="black" fill-opacity="0.7"/>
</svg>
