<svg width="18" height="16" viewBox="0 0 18 16" fill="none" xmlns="http://www.w3.org/2000/svg">
<path d="M16.9281 7.80646C17.2388 7.47697 17.2088 6.97196 16.8611 6.67878L9.19972 0.215913C8.85197 -0.0772654 8.29445 -0.0711239 7.95402 0.229759L0.26662 7.02335C-0.0738079 7.32423 -0.0905164 7.8286 0.229627 8.14941L0.422361 8.34293C0.742112 8.66374 1.25896 8.70199 1.57603 8.4281L2.15054 7.93209V15.1938C2.15054 15.6393 2.525 16 2.9868 16H5.98337C6.44517 16 6.81963 15.6393 6.81963 15.1938V10.1135H10.6418V15.1938C10.6351 15.639 10.9656 15.9997 11.4274 15.9997H14.603C15.0648 15.9997 15.4392 15.639 15.4392 15.1935V8.03434C15.4392 8.03434 15.5979 8.16838 15.7937 8.33425C15.9891 8.49981 16.3996 8.36706 16.7103 8.03725L16.9281 7.80646Z" fill="#06737A"/>
</svg>
