<svg height="457pt" viewBox="0 0 457.14341 457" width="457pt" xmlns="http://www.w3.org/2000/svg"><path d="m454.277344 418.195312-201.625-403.25c-4.589844-9.175781-13.820313-14.8749995-24.082032-14.8749995-10.257812 0-19.488281 5.6992185-24.078124 14.8749995l-201.625 403.25c-4.207032 8.410157-3.761719 18.199219 1.175781 26.199219 4.949219 7.988281 13.5 12.765625 22.902343 12.765625h403.25c9.402344 0 17.957032-4.777344 22.902344-12.765625 4.9375-8 5.382813-17.789062 1.179688-26.199219zm-16.734375 16.582032c-.765625 1.230468-3 4.097656-7.347657 4.097656h-403.25c-4.347656 0-6.578124-2.867188-7.347656-4.097656-.757812-1.234375-2.320312-4.519532-.375-8.402344l201.625-403.25c1.492188-2.980469 4.382813-4.769531 7.722656-4.769531 3.339844 0 6.234376 1.789062 7.722657 4.769531l201.625 403.25c1.949219 3.882812.386719 7.167969-.375 8.402344zm0 0"/><path d="m239.050781 294.414062 4.320313-147.988281h-29.597656l4.316406 147.988281zm0 0"/><path d="m228.570312 319.390625c-10.480468 0-18.1875 8.035156-18.1875 19.128906 0 10.769531 7.394532 19.101563 18.1875 19.101563 11.097657 0 18.1875-8.332032 18.1875-19.101563 0-11.09375-7.089843-19.128906-18.1875-19.128906zm0 0"/></svg>