<svg width="35" height="32" viewBox="0 0 35 32" fill="none" xmlns="http://www.w3.org/2000/svg">
<path d="M25.5701 24.6854C23.9014 24.6853 22.5438 23.3317 22.5438 21.6679V16.6569C22.5438 14.9931 23.9014 13.6396 25.5701 13.6396H33.4555C33.5033 13.6396 33.5508 13.641 33.598 13.6431V8.6513C33.598 7.36635 32.5533 6.32471 31.2646 6.32471H2.33351C1.04471 6.32463 0 7.36628 0 8.65122V29.6735C0 30.9585 1.04471 32.0002 2.33351 32.0002H31.2646C32.5533 32.0002 33.598 30.9586 33.598 29.6735V24.6817C33.5508 24.6839 33.5033 24.6854 33.4555 24.6854H25.5701Z" fill="black" fill-opacity="0.8"/>
<path d="M33.4555 15.2925H25.57C24.8145 15.2925 24.202 15.9032 24.202 16.6565V21.6675C24.202 22.4208 24.8145 23.0315 25.57 23.0315H33.4555C34.211 23.0315 34.8235 22.4209 34.8235 21.6675V16.6565C34.8235 15.9031 34.211 15.2925 33.4555 15.2925ZM28.2872 21.1307C27.1967 21.1307 26.3127 20.2492 26.3127 19.1619C26.3127 18.0746 27.1967 17.1932 28.2872 17.1932C29.3777 17.1932 30.2617 18.0746 30.2617 19.1619C30.2617 20.2492 29.3777 21.1307 28.2872 21.1307Z" fill="black" fill-opacity="0.8"/>
<path d="M27.2014 2.06266C26.6793 0.487171 24.9752 -0.368045 23.3951 0.152475L11.5405 4.05744H27.8624L27.2014 2.06266Z" fill="black" fill-opacity="0.8"/>
</svg>
