<svg width="32" height="32" viewBox="0 0 32 32" fill="none" xmlns="http://www.w3.org/2000/svg">
<path d="M10.3008 13.6608C11.8475 15.2203 13.7035 16 15.8689 16C18.0342 16 19.8902 15.2203 21.4369 13.6608C22.9835 12.1014 23.7569 10.23 23.7569 8.04678C23.7569 5.80117 22.9835 3.89864 21.4369 2.33918C19.8902 0.779727 18.0342 0 15.8689 0C13.7035 0 11.8475 0.779727 10.3008 2.33918C8.75416 3.89864 7.98083 5.80117 7.98083 8.04678C7.98083 10.23 8.75416 12.1014 10.3008 13.6608ZM22.3649 20.8655C20.0139 20.3041 17.8486 20.0234 15.8689 20.0234C13.8891 20.0234 11.7238 20.3041 9.37283 20.8655C7.02189 21.3645 4.85655 22.269 2.87681 23.5789C0.958936 24.8265 0 26.2924 0 27.9766V32H31.7377V27.9766C31.7377 26.2924 30.7478 24.8265 28.7681 23.5789C26.8502 22.269 24.7158 21.3645 22.3649 20.8655Z" fill="black" fill-opacity="0.8"/>
</svg>
