<svg width="23" height="16" viewBox="0 0 23 16" fill="none" xmlns="http://www.w3.org/2000/svg">
<path d="M17.7188 2.60938C15.7188 1.20312 13.4844 0.5 11.0156 0.5C8.54688 0.5 6.3125 1.20312 4.3125 2.60938C2.3125 3.98438 0.875 5.78125 0 8C0.875 10.2188 2.3125 12.0312 4.3125 13.4375C6.3125 14.8125 8.54688 15.5 11.0156 15.5C13.4844 15.5 15.7188 14.8125 17.7188 13.4375C19.7188 12.0312 21.1562 10.2188 22.0312 8C21.1562 5.78125 19.7188 3.98438 17.7188 2.60938ZM14.5781 11.5625C13.6094 12.5312 12.4219 13.0156 11.0156 13.0156C9.60938 13.0156 8.42188 12.5312 7.45312 11.5625C6.48438 10.5938 6 9.40625 6 8C6 6.59375 6.48438 5.40625 7.45312 4.4375C8.42188 3.46875 9.60938 2.98438 11.0156 2.98438C12.4219 2.98438 13.6094 3.46875 14.5781 4.4375C15.5469 5.40625 16.0312 6.59375 16.0312 8C16.0312 9.40625 15.5469 10.5938 14.5781 11.5625ZM13.125 5.89062C12.5625 5.29688 11.8594 5 11.0156 5C10.1719 5 9.45312 5.29688 8.85938 5.89062C8.29688 6.45312 8.01562 7.15625 8.01562 8C8.01562 8.84375 8.29688 9.5625 8.85938 10.1562C9.45312 10.7188 10.1719 11 11.0156 11C11.8594 11 12.5625 10.7188 13.125 10.1562C13.7188 9.5625 14.0156 8.84375 14.0156 8C14.0156 7.15625 13.7188 6.45312 13.125 5.89062Z" fill="#FAFAFA"/>
</svg>
