<svg width="19" height="19" viewBox="0 0 19 19" fill="none" xmlns="http://www.w3.org/2000/svg">
<path fill-rule="evenodd" clip-rule="evenodd" d="M13.5814 12.12H12.7188L12.419 11.8296C13.4782 10.6244 14.1224 9.06209 14.1224 7.3503C14.1224 3.54515 10.9611 0.460745 7.06118 0.460745C3.16124 0.460745 0 3.54515 0 7.3503C0 11.1555 3.16124 14.2399 7.06118 14.2399C8.81561 14.2399 10.4158 13.6124 11.6509 12.58L11.9508 12.8704V13.7099L17.3803 19L19 17.4196L13.5814 12.12ZM7.06208 12.1194C4.36145 12.1194 2.17357 9.98468 2.17357 7.3497C2.17357 4.71577 4.36145 2.58001 7.06208 2.58001C9.76163 2.58001 11.9506 4.71577 11.9506 7.3497C11.9506 9.98468 9.76163 12.1194 7.06208 12.1194Z" fill="#FAFAFA"/>
</svg>
