<svg width="40" height="40" viewBox="0 0 40 40" fill="none" xmlns="http://www.w3.org/2000/svg">
<path d="M6.66068 0L8.44574 3.94293H38.0258C38.2859 3.93527 38.5447 3.98104 38.7864 4.07743C39.0281 4.17381 39.2476 4.31876 39.4312 4.50335C39.6239 4.7009 39.7736 4.93625 39.8711 5.19459C39.9685 5.45293 40.0115 5.72867 39.9974 6.00447C40.0014 6.1789 39.9698 6.35232 39.9045 6.51408C39.8392 6.67584 39.7416 6.82254 39.6177 6.94517L32.4109 20.0149C32.1081 20.6452 31.6259 21.1716 31.0249 21.5277C30.4239 21.8839 29.7312 22.0539 29.0339 22.0164H14.2405L12.4555 25.4856V25.6724C12.4487 25.7237 12.4539 25.7758 12.4707 25.8247C12.4875 25.8736 12.5154 25.9179 12.5522 25.9541C12.5891 25.9904 12.6338 26.0175 12.6829 26.0335C12.732 26.0494 12.7841 26.0537 12.8351 26.0461H35.9677V30.049H11.9892C11.4726 30.0542 10.9605 29.9526 10.4849 29.7506C10.0093 29.5485 9.58042 29.2504 9.22504 28.8748C8.84572 28.504 8.54606 28.0594 8.34448 27.5684C8.14289 27.0773 8.04362 26.5502 8.05276 26.0194C8.07015 25.336 8.19838 24.66 8.43242 24.0179L11.2432 19.1409L4.02971 3.94293H0V0H6.66068Z" fill="white"/>
<path d="M16.0189 35.9803C16.0189 37.0419 15.5979 38.0601 14.8484 38.8108C14.099 39.5615 13.0824 39.9833 12.0225 39.9833C11.3619 39.9904 10.7097 39.8333 10.1245 39.5261C9.53931 39.2189 9.03926 38.7712 8.66912 38.223C8.29899 37.6748 8.07033 37.0432 8.00359 36.3848C7.93686 35.7264 8.03414 35.0617 8.28673 34.4502C8.53931 33.8387 8.93933 33.2994 9.45097 32.8807C9.96261 32.4619 10.5699 32.1768 11.2185 32.0508C11.8672 31.9248 12.5368 31.9618 13.1677 32.1585C13.7985 32.3553 14.3708 32.7056 14.8333 33.1782C15.211 33.5398 15.511 33.9748 15.7149 34.4567C15.9187 34.9385 16.0222 35.457 16.0189 35.9803Z" fill="#D03227"/>
<path d="M35.9676 35.9802C35.9715 36.9069 35.6543 37.8063 35.0701 38.5249C34.4858 39.2435 33.6708 39.7368 32.764 39.9206C31.8571 40.1044 30.9147 39.9674 30.0975 39.5329C29.2803 39.0983 28.6389 38.3933 28.2828 37.538C27.9267 36.6827 27.8778 35.7301 28.1446 34.8427C28.4115 33.9554 28.9774 33.1882 29.7459 32.6722C30.5144 32.1561 31.4378 31.9232 32.3587 32.013C33.2795 32.1028 34.1407 32.5099 34.7954 33.1648C35.1723 33.5291 35.4707 33.9668 35.6723 34.451C35.874 34.9352 35.9744 35.4556 35.9676 35.9802Z" fill="#D03227"/>
</svg>
