<svg width="24" height="16" viewBox="0 0 24 16" fill="none" xmlns="http://www.w3.org/2000/svg">
<path d="M18.7031 2.60938C16.7031 1.20312 14.4688 0.5 12 0.5C9.53125 0.5 7.29688 1.20312 5.29688 2.60938C3.29688 3.98437 1.85938 5.78125 0.984375 8C1.85938 10.2188 3.29688 12.0312 5.29688 13.4375C7.29688 14.8125 9.53125 15.5 12 15.5C14.4688 15.5 16.7031 14.8125 18.7031 13.4375C20.7031 12.0312 22.1406 10.2188 23.0156 8C22.1406 5.78125 20.7031 3.98437 18.7031 2.60938ZM15.5625 11.5625C14.5938 12.5312 13.4062 13.0156 12 13.0156C10.5938 13.0156 9.40625 12.5312 8.4375 11.5625C7.46875 10.5938 6.98438 9.40625 6.98438 8C6.98438 6.59375 7.46875 5.40625 8.4375 4.4375C9.40625 3.46875 10.5938 2.98438 12 2.98438C13.4062 2.98438 14.5938 3.46875 15.5625 4.4375C16.5312 5.40625 17.0156 6.59375 17.0156 8C17.0156 9.40625 16.5312 10.5938 15.5625 11.5625ZM14.1094 5.89062C13.5469 5.29688 12.8438 5 12 5C11.1562 5 10.4375 5.29688 9.84375 5.89062C9.28125 6.45312 9 7.15625 9 8C9 8.84375 9.28125 9.5625 9.84375 10.1562C10.4375 10.7188 11.1562 11 12 11C12.8438 11 13.5469 10.7188 14.1094 10.1562C14.7031 9.5625 15 8.84375 15 8C15 7.15625 14.7031 6.45312 14.1094 5.89062Z" fill="black" fill-opacity="0.7"/>
</svg>
