<svg width="98" height="28" viewBox="0 0 98 28" fill="none" xmlns="http://www.w3.org/2000/svg">
<rect width="28" height="28" fill="white"/>
<path d="M0 0V28H14.9117V17.1842H11.2665V12.7689H14.9117V9.06079C14.9117 6.364 17.0979 4.17785 19.7946 4.17785H23.6055V8.14822H20.8786C20.0217 8.14822 19.327 8.84292 19.327 9.69982V12.7689H23.5369L22.9551 17.1842H19.327V28H28V0H0Z" fill="#3A559F"/>
<rect x="28" width="70" height="28" fill="#3A559F"/>
<path d="M34.9844 19V10.4102H40.7793V11.4238H36.1211V14.084H40.1523V15.0977H36.1211V19H34.9844ZM46.1875 18.2324C45.7969 18.5645 45.4199 18.7988 45.0566 18.9355C44.6973 19.0723 44.3105 19.1406 43.8965 19.1406C43.2129 19.1406 42.6875 18.9746 42.3203 18.6426C41.9531 18.3066 41.7695 17.8789 41.7695 17.3594C41.7695 17.0547 41.8379 16.7773 41.9746 16.5273C42.1152 16.2734 42.2969 16.0703 42.5195 15.918C42.7461 15.7656 43 15.6504 43.2812 15.5723C43.4883 15.5176 43.8008 15.4648 44.2188 15.4141C45.0703 15.3125 45.6973 15.1914 46.0996 15.0508C46.1035 14.9062 46.1055 14.8145 46.1055 14.7754C46.1055 14.3457 46.0059 14.043 45.8066 13.8672C45.5371 13.6289 45.1367 13.5098 44.6055 13.5098C44.1094 13.5098 43.7422 13.5977 43.5039 13.7734C43.2695 13.9453 43.0957 14.252 42.9824 14.6934L41.9512 14.5527C42.0449 14.1113 42.1992 13.7559 42.4141 13.4863C42.6289 13.2129 42.9395 13.0039 43.3457 12.8594C43.752 12.7109 44.2227 12.6367 44.7578 12.6367C45.2891 12.6367 45.7207 12.6992 46.0527 12.8242C46.3848 12.9492 46.6289 13.1074 46.7852 13.2988C46.9414 13.4863 47.0508 13.7246 47.1133 14.0137C47.1484 14.1934 47.166 14.5176 47.166 14.9863V16.3926C47.166 17.373 47.1875 17.9941 47.2305 18.2559C47.2773 18.5137 47.3672 18.7617 47.5 19H46.3984C46.2891 18.7812 46.2188 18.5254 46.1875 18.2324ZM46.0996 15.877C45.7168 16.0332 45.1426 16.166 44.377 16.2754C43.9434 16.3379 43.6367 16.4082 43.457 16.4863C43.2773 16.5645 43.1387 16.6797 43.041 16.832C42.9434 16.9805 42.8945 17.1465 42.8945 17.3301C42.8945 17.6113 43 17.8457 43.2109 18.0332C43.4258 18.2207 43.7383 18.3145 44.1484 18.3145C44.5547 18.3145 44.916 18.2266 45.2324 18.0508C45.5488 17.8711 45.7812 17.627 45.9297 17.3184C46.043 17.0801 46.0996 16.7285 46.0996 16.2637V15.877ZM52.8672 16.7207L53.9043 16.8555C53.791 17.5703 53.5 18.1309 53.0312 18.5371C52.5664 18.9395 51.9941 19.1406 51.3145 19.1406C50.4629 19.1406 49.7773 18.8633 49.2578 18.3086C48.7422 17.75 48.4844 16.9512 48.4844 15.9121C48.4844 15.2402 48.5957 14.6523 48.8184 14.1484C49.041 13.6445 49.3789 13.2676 49.832 13.0176C50.2891 12.7637 50.7852 12.6367 51.3203 12.6367C51.9961 12.6367 52.5488 12.8086 52.9785 13.1523C53.4082 13.4922 53.6836 13.9766 53.8047 14.6055L52.7793 14.7637C52.6816 14.3457 52.5078 14.0312 52.2578 13.8203C52.0117 13.6094 51.7129 13.5039 51.3613 13.5039C50.8301 13.5039 50.3984 13.6953 50.0664 14.0781C49.7344 14.457 49.5684 15.0586 49.5684 15.8828C49.5684 16.7188 49.7285 17.3262 50.0488 17.7051C50.3691 18.084 50.7871 18.2734 51.3027 18.2734C51.7168 18.2734 52.0625 18.1465 52.3398 17.8926C52.6172 17.6387 52.793 17.248 52.8672 16.7207ZM59.0664 16.9961L60.1562 17.1309C59.9844 17.7676 59.666 18.2617 59.2012 18.6133C58.7363 18.9648 58.1426 19.1406 57.4199 19.1406C56.5098 19.1406 55.7871 18.8613 55.252 18.3027C54.7207 17.7402 54.4551 16.9531 54.4551 15.9414C54.4551 14.8945 54.7246 14.082 55.2637 13.5039C55.8027 12.9258 56.502 12.6367 57.3613 12.6367C58.1934 12.6367 58.873 12.9199 59.4004 13.4863C59.9277 14.0527 60.1914 14.8496 60.1914 15.877C60.1914 15.9395 60.1895 16.0332 60.1855 16.1582H55.5449C55.584 16.8418 55.7773 17.3652 56.125 17.7285C56.4727 18.0918 56.9062 18.2734 57.4258 18.2734C57.8125 18.2734 58.1426 18.1719 58.416 17.9688C58.6895 17.7656 58.9062 17.4414 59.0664 16.9961ZM55.6035 15.291H59.0781C59.0312 14.7676 58.8984 14.375 58.6797 14.1133C58.3438 13.707 57.9082 13.5039 57.373 13.5039C56.8887 13.5039 56.4805 13.666 56.1484 13.9902C55.8203 14.3145 55.6387 14.748 55.6035 15.291ZM62.459 19H61.4805V10.4102H62.5352V13.4746C62.9805 12.916 63.5488 12.6367 64.2402 12.6367C64.623 12.6367 64.9844 12.7148 65.3242 12.8711C65.668 13.0234 65.9492 13.2402 66.168 13.5215C66.3906 13.7988 66.5645 14.1348 66.6895 14.5293C66.8145 14.9238 66.877 15.3457 66.877 15.7949C66.877 16.8613 66.6133 17.6855 66.0859 18.2676C65.5586 18.8496 64.9258 19.1406 64.1875 19.1406C63.4531 19.1406 62.877 18.834 62.459 18.2207V19ZM62.4473 15.8418C62.4473 16.5879 62.5488 17.127 62.752 17.459C63.084 18.002 63.5332 18.2734 64.0996 18.2734C64.5605 18.2734 64.959 18.0742 65.2949 17.6758C65.6309 17.2734 65.7988 16.6758 65.7988 15.8828C65.7988 15.0703 65.6367 14.4707 65.3125 14.084C64.9922 13.6973 64.6035 13.5039 64.1465 13.5039C63.6855 13.5039 63.2871 13.7051 62.9512 14.1074C62.6152 14.5059 62.4473 15.084 62.4473 15.8418ZM67.7734 15.8887C67.7734 14.7363 68.0938 13.8828 68.7344 13.3281C69.2695 12.8672 69.9219 12.6367 70.6914 12.6367C71.5469 12.6367 72.2461 12.918 72.7891 13.4805C73.332 14.0391 73.6035 14.8125 73.6035 15.8008C73.6035 16.6016 73.4824 17.2324 73.2402 17.6934C73.002 18.1504 72.6523 18.5059 72.1914 18.7598C71.7344 19.0137 71.2344 19.1406 70.6914 19.1406C69.8203 19.1406 69.1152 18.8613 68.5762 18.3027C68.041 17.7441 67.7734 16.9395 67.7734 15.8887ZM68.8574 15.8887C68.8574 16.6855 69.0312 17.2832 69.3789 17.6816C69.7266 18.0762 70.1641 18.2734 70.6914 18.2734C71.2148 18.2734 71.6504 18.0742 71.998 17.6758C72.3457 17.2773 72.5195 16.6699 72.5195 15.8535C72.5195 15.084 72.3438 14.502 71.9922 14.1074C71.6445 13.709 71.2109 13.5098 70.6914 13.5098C70.1641 13.5098 69.7266 13.707 69.3789 14.1016C69.0312 14.4961 68.8574 15.0918 68.8574 15.8887ZM74.4531 15.8887C74.4531 14.7363 74.7734 13.8828 75.4141 13.3281C75.9492 12.8672 76.6016 12.6367 77.3711 12.6367C78.2266 12.6367 78.9258 12.918 79.4688 13.4805C80.0117 14.0391 80.2832 14.8125 80.2832 15.8008C80.2832 16.6016 80.1621 17.2324 79.9199 17.6934C79.6816 18.1504 79.332 18.5059 78.8711 18.7598C78.4141 19.0137 77.9141 19.1406 77.3711 19.1406C76.5 19.1406 75.7949 18.8613 75.2559 18.3027C74.7207 17.7441 74.4531 16.9395 74.4531 15.8887ZM75.5371 15.8887C75.5371 16.6855 75.7109 17.2832 76.0586 17.6816C76.4062 18.0762 76.8438 18.2734 77.3711 18.2734C77.8945 18.2734 78.3301 18.0742 78.6777 17.6758C79.0254 17.2773 79.1992 16.6699 79.1992 15.8535C79.1992 15.084 79.0234 14.502 78.6719 14.1074C78.3242 13.709 77.8906 13.5098 77.3711 13.5098C76.8438 13.5098 76.4062 13.707 76.0586 14.1016C75.7109 14.4961 75.5371 15.0918 75.5371 15.8887ZM81.5312 19V10.4102H82.5859V15.3086L85.082 12.7773H86.4473L84.0684 15.0859L86.6875 19H85.3867L83.3301 15.8184L82.5859 16.5332V19H81.5312Z" fill="white"/>
</svg>
