<svg width="13" height="12" viewBox="0 0 13 12" fill="none" xmlns="http://www.w3.org/2000/svg">
<path d="M10.2993 5.1875C9.38259 7.0625 7.91384 8.53125 5.89301 9.59375L4.42426 8.125C4.19509 7.89583 3.97634 7.85417 3.76801 8C3.03884 8.27083 2.23676 8.40625 1.36176 8.40625C1.17426 8.40625 1.01801 8.46875 0.893005 8.59375C0.768005 8.71875 0.705505 8.875 0.705505 9.0625V11.3438C0.705505 11.5312 0.768005 11.6875 0.893005 11.8125C1.01801 11.9375 1.17426 12 1.36176 12C3.42426 12 5.33051 11.5 7.08051 10.5C8.80967 9.47917 10.1847 8.10417 11.2055 6.375C12.2055 4.625 12.7055 2.71875 12.7055 0.65625C12.7055 0.46875 12.643 0.3125 12.518 0.1875C12.393 0.0625 12.2368 0 12.0493 0H9.70551C9.49717 0 9.34092 0.0625 9.23676 0.1875C9.11176 0.3125 9.04926 0.46875 9.04926 0.65625C9.04926 1.46875 8.91384 2.27083 8.64301 3.0625C8.58051 3.27083 8.62217 3.48958 8.76801 3.71875L10.2993 5.1875Z" fill="#70F6FF"/>
</svg>
