<svg width="90" height="28" viewBox="0 0 90 28" fill="none" xmlns="http://www.w3.org/2000/svg">
<path d="M0 0V28H28V0H0ZM19.3227 15.1779C18.8439 18.3233 16.4989 20.1265 13.4628 20.1265C10.051 20.1265 7.28494 17.3604 7.28494 13.9486C7.28494 10.5376 10.051 7.77153 13.4628 7.77153C15.1132 7.77153 16.5594 8.36049 17.6119 9.38285L15.839 11.1558C15.2385 10.5509 14.4168 10.2285 13.4628 10.2285C11.4545 10.2285 9.82628 11.941 9.82628 13.9485C9.82628 15.9578 11.4545 17.6207 13.4628 17.6207C15.1461 17.6207 16.4208 16.807 16.7885 15.1779H13.4628V12.697H19.3077C19.3778 13.0967 19.4134 13.5151 19.4134 13.9485C19.4133 14.3785 19.3822 14.788 19.3227 15.1779Z" fill="#DD4B39"/>
<rect x="28" width="62" height="28" fill="#DD4B39"/>
<path d="M45.2891 16.8809C45 17.2949 44.5957 17.6055 44.0762 17.8125C43.5605 18.0156 42.959 18.1172 42.2715 18.1172C41.5762 18.1172 40.959 17.9551 40.4199 17.6309C39.8809 17.3027 39.4629 16.8379 39.166 16.2363C38.873 15.6348 38.7227 14.9375 38.7148 14.1445V13.4004C38.7148 12.1152 39.0137 11.1191 39.6113 10.4121C40.2129 9.70508 41.0566 9.35156 42.1426 9.35156C43.0332 9.35156 43.75 9.58008 44.293 10.0371C44.8359 10.4902 45.168 11.1348 45.2891 11.9707H44.1641C43.9531 10.8418 43.2812 10.2773 42.1484 10.2773C41.3945 10.2773 40.8223 10.543 40.4316 11.0742C40.0449 11.6016 39.8496 12.3672 39.8457 13.3711V14.0684C39.8457 15.0254 40.0645 15.7871 40.502 16.3535C40.9395 16.916 41.5312 17.1973 42.2773 17.1973C42.6992 17.1973 43.0684 17.1504 43.3848 17.0566C43.7012 16.9629 43.9629 16.8047 44.1699 16.582V14.666H42.1953V13.752H45.2891V16.8809ZM46.7129 14.7715C46.7129 14.1504 46.834 13.5918 47.0762 13.0957C47.3223 12.5996 47.6621 12.2168 48.0957 11.9473C48.5332 11.6777 49.0312 11.543 49.5898 11.543C50.4531 11.543 51.1504 11.8418 51.6816 12.4395C52.2168 13.0371 52.4844 13.832 52.4844 14.8242V14.9004C52.4844 15.5176 52.3652 16.0723 52.127 16.5645C51.8926 17.0527 51.5547 17.4336 51.1133 17.707C50.6758 17.9805 50.1719 18.1172 49.6016 18.1172C48.7422 18.1172 48.0449 17.8184 47.5098 17.2207C46.9785 16.623 46.7129 15.832 46.7129 14.8477V14.7715ZM47.8027 14.9004C47.8027 15.6035 47.9648 16.168 48.2891 16.5938C48.6172 17.0195 49.0547 17.2324 49.6016 17.2324C50.1523 17.2324 50.5898 17.0176 50.9141 16.5879C51.2383 16.1543 51.4004 15.5488 51.4004 14.7715C51.4004 14.0762 51.2344 13.5137 50.9023 13.084C50.5742 12.6504 50.1367 12.4336 49.5898 12.4336C49.0547 12.4336 48.623 12.6465 48.2949 13.0723C47.9668 13.498 47.8027 14.1074 47.8027 14.9004ZM53.5566 14.7715C53.5566 14.1504 53.6777 13.5918 53.9199 13.0957C54.166 12.5996 54.5059 12.2168 54.9395 11.9473C55.377 11.6777 55.875 11.543 56.4336 11.543C57.2969 11.543 57.9941 11.8418 58.5254 12.4395C59.0605 13.0371 59.3281 13.832 59.3281 14.8242V14.9004C59.3281 15.5176 59.209 16.0723 58.9707 16.5645C58.7363 17.0527 58.3984 17.4336 57.957 17.707C57.5195 17.9805 57.0156 18.1172 56.4453 18.1172C55.5859 18.1172 54.8887 17.8184 54.3535 17.2207C53.8223 16.623 53.5566 15.832 53.5566 14.8477V14.7715ZM54.6465 14.9004C54.6465 15.6035 54.8086 16.168 55.1328 16.5938C55.4609 17.0195 55.8984 17.2324 56.4453 17.2324C56.9961 17.2324 57.4336 17.0176 57.7578 16.5879C58.082 16.1543 58.2441 15.5488 58.2441 14.7715C58.2441 14.0762 58.0781 13.5137 57.7461 13.084C57.418 12.6504 56.9805 12.4336 56.4336 12.4336C55.8984 12.4336 55.4668 12.6465 55.1387 13.0723C54.8105 13.498 54.6465 14.1074 54.6465 14.9004ZM60.4297 14.7773C60.4297 13.7891 60.6582 13.0039 61.1152 12.4219C61.5723 11.8359 62.1777 11.543 62.9316 11.543C63.7051 11.543 64.3086 11.8164 64.7422 12.3633L64.7949 11.6602H65.7852V17.8477C65.7852 18.668 65.541 19.3145 65.0527 19.7871C64.5684 20.2598 63.916 20.4961 63.0957 20.4961C62.6387 20.4961 62.1914 20.3984 61.7539 20.2031C61.3164 20.0078 60.9824 19.7402 60.752 19.4004L61.3145 18.75C61.7793 19.3242 62.3477 19.6113 63.0195 19.6113C63.5469 19.6113 63.957 19.4629 64.25 19.166C64.5469 18.8691 64.6953 18.4512 64.6953 17.9121V17.3672C64.2617 17.8672 63.6699 18.1172 62.9199 18.1172C62.1777 18.1172 61.5762 17.8184 61.1152 17.2207C60.6582 16.623 60.4297 15.8086 60.4297 14.7773ZM61.5195 14.9004C61.5195 15.6152 61.666 16.1777 61.959 16.5879C62.252 16.9941 62.6621 17.1973 63.1895 17.1973C63.873 17.1973 64.375 16.8867 64.6953 16.2656V13.3711C64.3633 12.7656 63.8652 12.4629 63.2012 12.4629C62.6738 12.4629 62.2617 12.668 61.9648 13.0781C61.668 13.4883 61.5195 14.0957 61.5195 14.9004ZM68.6035 18H67.5195V9H68.6035V18ZM72.9746 18.1172C72.1152 18.1172 71.416 17.8359 70.877 17.2734C70.3379 16.707 70.0684 15.9512 70.0684 15.0059V14.8066C70.0684 14.1777 70.1875 13.6172 70.4258 13.125C70.668 12.6289 71.0039 12.2422 71.4336 11.9648C71.8672 11.6836 72.3359 11.543 72.8398 11.543C73.6641 11.543 74.3047 11.8145 74.7617 12.3574C75.2188 12.9004 75.4473 13.6777 75.4473 14.6895V15.1406H71.1523C71.168 15.7656 71.3496 16.2715 71.6973 16.6582C72.0488 17.041 72.4941 17.2324 73.0332 17.2324C73.416 17.2324 73.7402 17.1543 74.0059 16.998C74.2715 16.8418 74.5039 16.6348 74.7031 16.377L75.3652 16.8926C74.834 17.709 74.0371 18.1172 72.9746 18.1172ZM72.8398 12.4336C72.4023 12.4336 72.0352 12.5938 71.7383 12.9141C71.4414 13.2305 71.2578 13.6758 71.1875 14.25H74.3633V14.168C74.332 13.6172 74.1836 13.1914 73.918 12.8906C73.6523 12.5859 73.293 12.4336 72.8398 12.4336Z" fill="white"/>
</svg>
