<svg width="204" height="36" viewBox="0 0 204 36" fill="none" xmlns="http://www.w3.org/2000/svg">
<path d="M8.59714 10.3844V0H0L0.00558256 1.25799L8.59714 10.3844Z" fill="white"/>
<path d="M0.00610352 2.39062V14.2704L2.57966 17.0059L8.17338 11.066L0.00610352 2.39062Z" fill="#E1251B"/>
<path d="M30.6259 0L8.59713 23.3975V35.9478H0V15.4282L2.57356 18.1638L19.6729 0.00593394L30.6259 0Z" fill="white"/>
<path d="M9.1333 23.9704L20.4212 35.9569L32.6693 35.951L15.2629 17.4668L9.1333 23.9704Z" fill="white"/>
<path d="M54.9993 29.7987H43.7561L41.5231 35.9759H35.8289L46.8153 7.11914H52.0127L62.9545 35.9996H57.2156L54.9993 29.7987ZM45.4141 25.2177H53.3413L49.3777 14.2399L45.4141 25.2177Z" fill="white"/>
<path d="M89.9245 35.9759H84.2358V11.9553H72.1775V35.9759H66.5112V7.11914H89.9245V35.9759Z" fill="white"/>
<path d="M114.03 7.11914H119.696V35.9759H114.03V16.0675L101.67 35.9759H96.0205V7.11914H101.687V26.9266L114.03 7.11914Z" fill="white"/>
<path d="M147.418 11.9553H138.414V35.9759H132.748V11.9553H123.86V7.11914H147.418V11.9553Z" fill="white"/>
<path d="M168.236 29.7987H156.993L154.76 35.9759H149.054L160.046 7.11914H165.244L176.186 35.9759H170.452L168.236 29.7987ZM158.651 25.2177H166.578L162.614 14.2399L158.651 25.2177Z" fill="white"/>
<path d="M203.299 35.9759H197.622V24.197H185.413V35.9759H179.758V7.11914H185.424V19.3668H197.622V7.11914H203.288L203.299 35.9759Z" fill="white"/>
</svg>
