<svg width="51" height="32" viewBox="0 0 51 32" fill="none" xmlns="http://www.w3.org/2000/svg">
<path d="M41.7242 23.4102C39.3537 23.4102 37.4253 25.3373 37.4253 27.705C37.4253 30.0732 39.3537 31.9998 41.7242 31.9998C44.0941 31.9998 46.023 30.0732 46.023 27.705C46.023 25.3373 44.0941 23.4102 41.7242 23.4102ZM41.7242 28.9682C41.0268 28.9682 40.4598 28.4017 40.4598 27.705C40.4598 27.0082 41.0268 26.4418 41.7242 26.4418C42.4215 26.4418 42.9885 27.0082 42.9885 27.705C42.9885 28.4017 42.4215 28.9682 41.7242 28.9682Z" fill="black"/>
<path d="M41.3124 5.55762H33.885C33.3261 5.55762 32.8735 6.01038 32.8735 6.56816V26.2738C32.8735 26.8316 33.3261 27.2844 33.885 27.2844H34.9578C35.4585 27.2844 35.902 26.9241 35.9667 26.428C36.3637 23.3892 38.7898 21.5046 41.7246 21.5046C44.6594 21.5046 47.0855 23.3893 47.4825 26.428C47.5472 26.9242 47.9903 27.2844 48.4915 27.2844H49.5631C50.1214 27.2844 50.5746 26.8316 50.5746 26.2738V16.421C50.5746 16.1836 50.4912 15.9541 50.3389 15.7727L42.0881 5.9199C41.8961 5.69054 41.6118 5.55762 41.3124 5.55762ZM34.8965 13.642V8.58926C34.8965 8.03148 35.3491 7.57871 35.908 7.57871H40.3636C40.6635 7.57871 40.9483 7.71213 41.1404 7.94248L45.3549 12.9952C45.9036 13.6536 45.4353 14.6525 44.5776 14.6525H35.908C35.3491 14.6525 34.8965 14.2004 34.8965 13.642Z" fill="black"/>
<path d="M1.0115 27.2848H3.60147C4.10218 27.2848 4.5457 26.9245 4.6104 26.4284C5.0074 23.3896 7.4335 21.505 10.3683 21.505C13.3032 21.505 15.7293 23.3897 16.1263 26.4284C16.191 26.9246 16.634 27.2848 17.1352 27.2848H29.8391C30.3975 27.2848 30.8506 26.832 30.8506 26.2742V1.01055C30.8506 0.452765 30.3974 1.96526e-07 29.8391 1.96526e-07H1.0115C0.452611 1.96526e-07 0 0.452765 0 1.01055V26.2742C0 26.8321 0.452611 27.2848 1.0115 27.2848Z" fill="black" fill-opacity="0.8"/>
<path d="M10.3678 23.4102C7.99742 23.4102 6.06897 25.3373 6.06897 27.705C6.06897 30.0732 7.99742 31.9998 10.3678 31.9998C12.7377 31.9998 14.6667 30.0732 14.6667 27.705C14.6667 25.3373 12.7377 23.4102 10.3678 23.4102ZM10.3678 28.9682C9.67044 28.9682 9.10346 28.4017 9.10346 27.705C9.10346 27.0082 9.67044 26.4418 10.3678 26.4418C11.0652 26.4418 11.6322 27.0082 11.6322 27.705C11.6322 28.4017 11.0652 28.9682 10.3678 28.9682Z" fill="black"/>
</svg>
