<svg width="12" height="12" viewBox="0 0 12 12" fill="none" xmlns="http://www.w3.org/2000/svg">
<path d="M2.40625 5.1875C3.32292 7.0625 4.79167 8.53125 6.8125 9.59375L8.28125 8.125C8.51042 7.89583 8.72917 7.85417 8.9375 8C9.66667 8.27083 10.4688 8.40625 11.3438 8.40625C11.5312 8.40625 11.6875 8.46875 11.8125 8.59375C11.9375 8.71875 12 8.875 12 9.0625V11.3438C12 11.5312 11.9375 11.6875 11.8125 11.8125C11.6875 11.9375 11.5312 12 11.3438 12C9.28125 12 7.375 11.5 5.625 10.5C3.89583 9.47917 2.52083 8.10417 1.5 6.375C0.5 4.625 0 2.71875 0 0.65625C0 0.46875 0.0625 0.3125 0.1875 0.1875C0.3125 0.0625 0.46875 0 0.65625 0H3C3.20833 0 3.36458 0.0625 3.46875 0.1875C3.59375 0.3125 3.65625 0.46875 3.65625 0.65625C3.65625 1.46875 3.79167 2.27083 4.0625 3.0625C4.125 3.27083 4.08333 3.48958 3.9375 3.71875L2.40625 5.1875Z" fill="#06737A"/>
</svg>
