<svg width="25" height="29" viewBox="0 0 25 29" fill="none" xmlns="http://www.w3.org/2000/svg">
<path d="M14.8483 16.7891L15.4193 17.6101L14.8483 16.7891ZM3.87499 14.868L3.05457 15.4398L3.05457 15.4398L3.87499 14.868ZM5.88225 3.91012L6.4532 4.73111L5.88225 3.91012ZM15.822 17.3131L15.2069 16.5247L14.4275 17.1333L15.027 17.9197L15.822 17.3131ZM17.6763 5.25992L16.8559 5.83167L16.8559 5.83168L17.6763 5.25992ZM5.3109 3.08942L4.73995 2.26843L5.3109 3.08942ZM3.05429 15.4393L2.23386 16.0111L3.05429 15.4393ZM15.4139 17.6138L16.0198 18.4094L14.8436 16.7924L15.4139 17.6138ZM15.0218 17.9128L14.4159 17.1173L13.6202 17.7238L14.2268 18.5195L15.0218 17.9128ZM21.8059 26.8123L21.0109 27.4189L21.6169 28.2138L22.4118 27.6078L21.8059 26.8123ZM22.6012 26.206L23.207 27.0016L24.0027 26.395L23.3962 25.5994L22.6012 26.206ZM15.4193 17.6101C19.4574 14.7989 20.4674 9.26918 17.676 5.25952L16.0352 6.40303C18.188 9.49549 17.419 13.781 14.2774 15.9682L15.4193 17.6101ZM3.05457 15.4398C5.84577 19.4491 11.3815 20.4211 15.4193 17.6101L14.2774 15.9682C11.1354 18.1555 6.84854 17.389 4.69542 14.2962L3.05457 15.4398ZM5.3113 3.08914C1.27319 5.90036 0.263138 11.4301 3.05457 15.4398L4.69542 14.2962C2.54252 11.2038 3.31154 6.91825 6.4532 4.73111L5.3113 3.08914ZM17.676 5.25952C14.8848 1.25018 9.34911 0.278129 5.3113 3.08914L6.4532 4.73111C9.59518 2.54375 13.882 3.31024 16.0352 6.40303L17.676 5.25952ZM16.4371 18.1015C20.5485 14.8907 21.5016 9.00447 18.4967 4.68817L16.8559 5.83168C19.2436 9.26141 18.4952 13.9567 15.2069 16.5247L16.4371 18.1015ZM18.4967 4.68817C15.3861 0.219975 9.22541 -0.854219 4.73995 2.26843L5.88185 3.9104C9.4719 1.41111 14.3836 2.28045 16.8559 5.83167L18.4967 4.68817ZM4.73995 2.26843C0.254181 5.3913 -0.877008 11.5426 2.23386 16.0111L3.87471 14.8676C1.40266 11.3167 2.29211 6.40948 5.88185 3.9104L4.73995 2.26843ZM2.23386 16.0111C5.34304 20.4772 11.4993 21.5525 15.9843 18.4353L14.8436 16.7924C11.254 19.2873 6.34582 18.4171 3.87471 14.8676L2.23386 16.0111ZM15.6276 18.7084L16.0198 18.4094L14.8081 16.8183L14.4159 17.1173L15.6276 18.7084ZM22.6009 26.2056L15.8168 17.3062L14.2268 18.5195L21.0109 27.4189L22.6009 26.2056ZM21.9953 25.4105L21.2001 26.0167L22.4118 27.6078L23.207 27.0016L21.9953 25.4105ZM15.027 17.9197L21.8062 26.8127L23.3962 25.5994L16.617 16.7064L15.027 17.9197Z" fill="#40D4DE"/>
</svg>
