<svg width="18" height="18" viewBox="0 0 18 18" fill="none" xmlns="http://www.w3.org/2000/svg">
<path d="M3.60938 7.78125C4.98438 10.5938 7.1875 12.7969 10.2188 14.3906L12.4219 12.1875C12.7656 11.8438 13.0938 11.7812 13.4062 12C14.5 12.4062 15.7031 12.6094 17.0156 12.6094C17.2969 12.6094 17.5312 12.7031 17.7188 12.8906C17.9062 13.0781 18 13.3125 18 13.5938V17.0156C18 17.2969 17.9062 17.5312 17.7188 17.7188C17.5312 17.9062 17.2969 18 17.0156 18C13.9219 18 11.0625 17.25 8.4375 15.75C5.84375 14.2188 3.78125 12.1562 2.25 9.5625C0.75 6.9375 0 4.07812 0 0.984375C0 0.703125 0.09375 0.46875 0.28125 0.28125C0.46875 0.09375 0.703125 0 0.984375 0H4.5C4.8125 0 5.04688 0.09375 5.20312 0.28125C5.39062 0.46875 5.48438 0.703125 5.48438 0.984375C5.48438 2.20312 5.6875 3.40625 6.09375 4.59375C6.1875 4.90625 6.125 5.23438 5.90625 5.57812L3.60938 7.78125Z" fill="#FAFAFA"/>
</svg>
