<svg width="22" height="18" viewBox="0 0 22 18" fill="none" xmlns="http://www.w3.org/2000/svg">
<path d="M22 0.855556C22 0.342222 21.6333 0 21.0833 0H0.916667C0.366667 0 0 0.342222 0 0.855556V2.56667C0 3.08 0.366667 3.42222 0.916667 3.42222H21.0833C21.6333 3.42222 22 3.08 22 2.56667V0.855556Z" fill="#FAFAFA"/>
<path d="M22 7.69931C22 7.18597 21.6333 6.84375 21.0833 6.84375H0.916667C0.366667 6.84375 0 7.18597 0 7.69931V9.41042C0 9.92375 0.366667 10.266 0.916667 10.266H21.0833C21.6333 10.266 22 9.92375 22 9.41042V7.69931Z" fill="#FAFAFA"/>
<path d="M22 14.545C22 14.0317 21.6333 13.6895 21.0833 13.6895H0.916667C0.366667 13.6895 0 14.0317 0 14.545V16.2561C0 16.7695 0.366667 17.1117 0.916667 17.1117H21.0833C21.6333 17.1117 22 16.7695 22 16.2561V14.545Z" fill="#FAFAFA"/>
</svg>
