<svg width="16" height="16" viewBox="0 0 16 16" fill="none" xmlns="http://www.w3.org/2000/svg">
<path d="M5.19298 6.83041C5.97271 7.61014 6.90838 8 8 8C9.09162 8 10.0273 7.61014 10.807 6.83041C11.5867 6.05068 11.9766 5.11501 11.9766 4.02339C11.9766 2.90058 11.5867 1.94932 10.807 1.16959C10.0273 0.389864 9.09162 0 8 0C6.90838 0 5.97271 0.389864 5.19298 1.16959C4.41326 1.94932 4.02339 2.90058 4.02339 4.02339C4.02339 5.11501 4.41326 6.05068 5.19298 6.83041ZM11.2749 10.4327C10.0897 10.152 8.99805 10.0117 8 10.0117C7.00195 10.0117 5.91033 10.152 4.72515 10.4327C3.53996 10.6823 2.44834 11.1345 1.45029 11.7895C0.483431 12.4133 0 13.1462 0 13.9883V16H16V13.9883C16 13.1462 15.501 12.4133 14.5029 11.7895C13.5361 11.1345 12.46 10.6823 11.2749 10.4327Z" fill="#FAFAFA"/>
</svg>
