<svg width="21" height="20" viewBox="0 0 21 20" fill="none" xmlns="http://www.w3.org/2000/svg">
<path d="M7.40625 16.6094C7.03125 16.2031 6.5625 16 6 16C5.46875 16 5 16.2031 4.59375 16.6094C4.21875 16.9844 4.03125 17.4531 4.03125 18.0156C4.03125 18.5469 4.21875 19 4.59375 19.375C5 19.7812 5.46875 19.9844 6 19.9844C6.5625 19.9844 7.03125 19.7812 7.40625 19.375C7.8125 19 8.01562 18.5469 8.01562 18.0156C8.01562 17.4531 7.8125 16.9844 7.40625 16.6094ZM0 0.015625V1.98438H2.01562L5.625 9.57812L4.21875 12.0156C4.09375 12.3906 4.03125 12.7188 4.03125 13C4.03125 13.5625 4.21875 14.0469 4.59375 14.4531C5 14.8281 5.46875 15.0156 6 15.0156H18V13H6.42188C6.29688 13 6.23438 12.9375 6.23438 12.8125V12.7188L7.125 10.9844H14.5312C15.3125 10.9844 15.875 10.6562 16.2188 10L19.8281 3.48438C19.9531 3.35938 20.0156 3.20312 20.0156 3.01562C20.0156 2.70312 19.9219 2.45312 19.7344 2.26562C19.5469 2.07812 19.3125 1.98438 19.0312 1.98438H4.21875L3.32812 0.015625H0ZM17.3906 16.6094C17.0156 16.2031 16.5469 16 15.9844 16C15.4531 16 14.9844 16.2031 14.5781 16.6094C14.2031 16.9844 14.0156 17.4531 14.0156 18.0156C14.0156 18.5469 14.2031 19 14.5781 19.375C14.9844 19.7812 15.4531 19.9844 15.9844 19.9844C16.5469 19.9844 17.0156 19.7812 17.3906 19.375C17.7969 19 18 18.5469 18 18.0156C18 17.4531 17.7969 16.9844 17.3906 16.6094Z" fill="#FAFAFA"/>
</svg>
